<?xml version="1.0" encoding="utf-8"?>
<!-- Generator: Adobe Illustrator 23.0.1, SVG Export Plug-In . SVG Version: 6.00 Build 0)  -->
<svg version="1.1" id="Layer_1" xmlns="http://www.w3.org/2000/svg" xmlns:xlink="http://www.w3.org/1999/xlink" x="0px" y="0px"
	 viewBox="0 0 120 28" style="enable-background:new 0 0 120 28;" xml:space="preserve">
<style type="text/css">
	.st0{fill:#FFFEFF;}
</style>
<g>
	<path class="st0" d="M51.97,4.38V3.31h7.16v1.07h-2.98v8.61h-1.19V4.38H51.97z M59.3,12.99l3.11-9.71h1.53l3.11,9.71h-1.19
		l-0.94-2.9h-3.45l-0.94,2.9H59.3L59.3,12.99z M61.81,8.98h2.77l-1.36-4.18C63.21,4.81,61.81,8.98,61.81,8.98z M67.99,12.99V3.27
		h1.19l4.77,7.63V3.27h1.19v9.71h-1.19l-4.77-7.63v7.63H67.99z M76.81,12.99V3.27h2.98c1.28,0,2.34,0.43,3.11,1.32
		c0.77,0.89,1.19,2.05,1.19,3.54s-0.38,2.64-1.19,3.54c-0.77,0.89-1.83,1.32-3.11,1.32C79.79,12.99,76.81,12.99,76.81,12.99z
		 M78,11.88h1.79c0.94,0,1.66-0.34,2.26-1.02c0.55-0.68,0.85-1.62,0.85-2.77s-0.3-2.05-0.85-2.73s-1.32-1.02-2.26-1.02H78V11.88z
		 M85.24,12.99V3.27h4.05c0.77,0,1.41,0.26,1.96,0.77C91.8,4.55,92.1,5.23,92.1,6c0,0.43-0.09,0.85-0.3,1.19
		C91.59,7.53,91.29,7.83,90.91,8c0.47,0.21,0.81,0.51,1.07,0.89c0.3,0.38,0.43,0.85,0.43,1.32c0,0.77-0.3,1.45-0.94,1.96
		c-0.6,0.51-1.32,0.77-2.17,0.77h-4.05L85.24,12.99z M86.43,7.45h2.85c0.43,0,0.81-0.13,1.15-0.43c0.34-0.3,0.47-0.64,0.47-1.02
		c0-0.47-0.17-0.85-0.47-1.15c-0.3-0.34-0.68-0.47-1.15-0.47h-2.85L86.43,7.45L86.43,7.45z M86.43,11.88h2.85
		c0.51,0,0.94-0.13,1.32-0.43c0.38-0.3,0.6-0.72,0.6-1.19s-0.21-0.89-0.6-1.24c-0.38-0.3-0.81-0.47-1.32-0.47h-2.85V11.88z
		 M93.55,12.99V3.27h6.56v1.15h-5.37V7.4h4.77v1.15h-4.77v3.28h5.37v1.15H93.55z M101.18,12.99V3.27h4.13c0.94,0,1.7,0.26,2.26,0.77
		c0.55,0.51,0.85,1.19,0.85,2.05c0,0.51-0.13,1.02-0.43,1.45c-0.3,0.43-0.68,0.72-1.15,0.94c0.34,0.26,0.64,0.55,0.81,0.89
		c0.21,0.38,0.3,0.77,0.3,1.15l0.04,1.87c0,0.09,0.04,0.26,0.17,0.43l0.04,0.13h-1.19l-0.04-0.09c-0.13-0.21-0.21-0.43-0.21-0.55
		l-0.04-1.83c0-0.47-0.21-0.85-0.6-1.15c-0.38-0.26-0.81-0.43-1.36-0.43h-2.47v4h-1.11V12.99z M102.37,7.92h2.94
		c0.6,0,1.02-0.17,1.41-0.47c0.34-0.34,0.51-0.77,0.51-1.32c0-0.51-0.17-0.94-0.51-1.28c-0.34-0.34-0.81-0.47-1.41-0.47h-2.94
		C102.37,4.38,102.37,7.92,102.37,7.92z M109.14,8.13c0-1.53,0.38-2.73,1.11-3.66c0.72-0.89,1.75-1.36,2.94-1.36
		c0.89,0,1.7,0.3,2.43,0.85c0.68,0.6,1.15,1.32,1.28,2.22L115.7,6.3c-0.09-0.6-0.38-1.11-0.89-1.53c-0.47-0.38-1.02-0.6-1.62-0.6
		c-0.85,0-1.58,0.34-2.09,1.07c-0.51,0.72-0.77,1.66-0.77,2.85c0,1.15,0.26,2.13,0.77,2.81c0.51,0.68,1.19,1.07,2.09,1.07
		c0.81,0,1.45-0.26,1.92-0.81c0.47-0.55,0.72-1.28,0.72-2.17h-2.64V7.79h3.83v4.94h-0.85L116,11.71c-0.3,0.43-0.72,0.81-1.24,1.02
		c-0.51,0.21-1.02,0.34-1.58,0.34c-1.24,0-2.22-0.47-2.94-1.36C109.48,10.81,109.14,9.62,109.14,8.13z"/>
	<g>
		<path class="st0" d="M52.73,24.11v-8.56h1.07v8.61h-1.07V24.11z M55.29,24.11v-8.56h1.07l4.3,6.77v-6.77h1.07v8.61h-1.07
			l-4.3-6.77v6.77h-1.07V24.11z M63.21,24.11v-8.56h1.07l4.3,6.77v-6.77h1.07v8.61h-1.07l-4.3-6.77v6.77h-1.07V24.11z"/>
	</g>
	<g>
		<path class="st0" d="M70.59,19.8c0-1.36,0.34-2.43,1.07-3.24c0.72-0.81,1.66-1.24,2.81-1.24s2.09,0.43,2.81,1.24
			c0.72,0.81,1.07,1.92,1.07,3.24S78,22.19,77.27,23c-0.68,0.81-1.62,1.19-2.81,1.19s-2.09-0.38-2.81-1.19
			C70.93,22.23,70.59,21.17,70.59,19.8z M71.65,19.8c0,1.02,0.26,1.87,0.77,2.51c0.51,0.64,1.19,0.94,2.05,0.94s1.49-0.3,2-0.94
			c0.51-0.64,0.77-1.45,0.77-2.51c0-1.07-0.26-1.92-0.77-2.56c-0.51-0.64-1.19-0.98-2-0.98c-0.85,0-1.53,0.34-2.05,0.98
			C71.91,17.93,71.65,18.74,71.65,19.8z"/>
	</g>
	<g>
		<path class="st0" d="M78.68,15.54h1.07l2.39,6.86l2.34-6.86h1.07l-2.9,8.61h-1.07L78.68,15.54z"/>
	</g>
	<g>
		<path class="st0" d="M85.24,24.11l2.81-8.61h1.36l2.81,8.61h-1.07l-0.85-2.56H87.2l-0.85,2.56H85.24z M87.5,20.57h2.47l-1.24-3.71
			L87.5,20.57L87.5,20.57z"/>
	</g>
	<g>
		<path class="st0" d="M92.27,16.48V15.5h6.43v0.98h-2.68v7.63h-1.07v-7.63H92.27L92.27,16.48z M99.51,24.11v-8.56h1.07v8.61h-1.07
			V24.11z M101.64,19.8c0-1.36,0.34-2.43,1.07-3.24c0.72-0.81,1.66-1.24,2.81-1.24c1.15,0,2.09,0.43,2.81,1.24
			c0.72,0.81,1.07,1.92,1.07,3.24s-0.34,2.39-1.07,3.2c-0.68,0.81-1.62,1.19-2.81,1.19c-1.15,0-2.09-0.38-2.81-1.19
			C102.03,22.23,101.64,21.17,101.64,19.8z M102.75,19.8c0,1.02,0.26,1.87,0.77,2.51c0.51,0.64,1.19,0.94,2.05,0.94
			c0.85,0,1.49-0.3,2-0.94c0.51-0.64,0.77-1.45,0.77-2.51c0-1.07-0.26-1.92-0.77-2.56c-0.51-0.64-1.19-0.98-2-0.98
			c-0.85,0-1.53,0.34-2.05,0.98C103.01,17.93,102.75,18.74,102.75,19.8z M110.46,24.11v-8.56h1.07l4.3,6.77v-6.77h1.07v8.61h-1.07
			l-4.3-6.77v6.77h-1.07V24.11z"/>
	</g>
</g>
<path class="st0" d="M34.07,0.59c-4.15,0-6.74,2.52-8.61,5.79C25,5.92,20.3,1.5,14.59,1.5C8.32,1.5,4.13,6.28,4.13,13.75
	c0,8.07,4.97,12.08,10.19,12.05c3.82,0,6.28-2.09,8.16-4.95c0.58,0.91,4.52,6.56,10.99,6.56c7.58,0,12.23-6.35,12.23-13.57
	C45.7,6.1,40.39,0.59,34.07,0.59z M14.36,21.82c-3.61,0-6.59-2.98-6.59-8.1c0-4.83,2.7-8.26,6.98-8.26c4.82,0,8.4,3.43,9.1,4.15
	C21.33,15.39,19.57,21.82,14.36,21.82z M33.29,23.38c-5.16,0-8.37-4.53-9.1-5.77c2.88-5.91,4.64-12.98,9.83-12.98
	c4.77,0,8.01,4.49,8.01,9.22C42.03,18.7,38.72,23.38,33.29,23.38z"/>
</svg>
