<svg id="Layer_1" data-name="Layer 1" xmlns="http://www.w3.org/2000/svg" viewBox="0 0 120 28"><defs><style>.cls-1{fill:#fffeff;}</style></defs><title>log</title><path class="cls-1" d="M52,4.38V3.31h7.15V4.38h-3V13H55V4.38ZM59.3,13l3.11-9.72h1.53L67.05,13H65.86l-.94-2.9H61.47L60.53,13Zm2.51-4h2.77L63.21,4.81ZM68,13V3.27h1.19L74,10.9V3.27h1.19V13H74L69.18,5.36V13Zm8.82,0V3.27h3A3.92,3.92,0,0,1,82.9,4.59a5.22,5.22,0,0,1,1.19,3.54,5,5,0,0,1-1.19,3.54A3.92,3.92,0,0,1,79.79,13ZM78,11.88h1.79a2.84,2.84,0,0,0,2.26-1,4.34,4.34,0,0,0,.85-2.77,4.2,4.2,0,0,0-.85-2.73,2.79,2.79,0,0,0-2.26-1H78ZM85.24,13V3.27h4.05a2.78,2.78,0,0,1,2,.77,2.62,2.62,0,0,1,.85,2,2.18,2.18,0,0,1-.3,1.19,2.06,2.06,0,0,1-.89.81A2.36,2.36,0,0,1,92,8.9a2.11,2.11,0,0,1,.43,1.32,2.43,2.43,0,0,1-.94,2,3.21,3.21,0,0,1-2.17.76H85.24Zm1.19-5.54h2.86A1.67,1.67,0,0,0,90.44,7a1.29,1.29,0,0,0,.47-1,1.57,1.57,0,0,0-.47-1.15,1.43,1.43,0,0,0-1.15-.47H86.43V7.45Zm0,4.43h2.86a2,2,0,0,0,1.32-.43,1.5,1.5,0,0,0,.6-1.19A1.66,1.66,0,0,0,90.61,9a2.12,2.12,0,0,0-1.32-.46H86.43ZM93.55,13V3.27h6.56V4.42H94.74v3h4.77V8.56H94.74v3.28h5.37V13Zm7.63,0V3.27h4.13a3.24,3.24,0,0,1,2.26.77,2.67,2.67,0,0,1,.85,2A2.47,2.47,0,0,1,108,7.53a2.7,2.7,0,0,1-1.15.94,2.72,2.72,0,0,1,.81.89,2.39,2.39,0,0,1,.3,1.16l0,1.87a.88.88,0,0,0,.17.43l0,.12H107l0-.08a1.26,1.26,0,0,1-.21-.56l-.05-1.83a1.42,1.42,0,0,0-.59-1.15,2.42,2.42,0,0,0-1.37-.42h-2.47v4h-1.1Zm1.19-5.07h2.94a2.13,2.13,0,0,0,1.4-.47,1.74,1.74,0,0,0,.52-1.32,1.71,1.71,0,0,0-.52-1.28,1.88,1.88,0,0,0-1.4-.47h-2.94Zm6.77.21a5.78,5.78,0,0,1,1.11-3.66,3.65,3.65,0,0,1,2.94-1.37,4,4,0,0,1,2.43.85,3.61,3.61,0,0,1,1.28,2.22l-1.2.13a2.39,2.39,0,0,0-.89-1.54,2.54,2.54,0,0,0-1.62-.59,2.45,2.45,0,0,0-2.09,1.06,4.84,4.84,0,0,0-.76,2.86,4.68,4.68,0,0,0,.76,2.81A2.5,2.5,0,0,0,113.19,12a2.35,2.35,0,0,0,1.92-.81A3.23,3.23,0,0,0,115.83,9h-2.64V7.79H117v4.94h-.85l-.17-1a2.93,2.93,0,0,1-1.23,1,4.11,4.11,0,0,1-1.58.34,3.6,3.6,0,0,1-2.94-1.36A5.29,5.29,0,0,1,109.14,8.13Z"/><path class="cls-1" d="M52.73,24.11V15.54H53.8v8.61H52.73Zm2.56,0V15.54h1.07l4.3,6.78V15.54h1.06v8.61H60.66l-4.3-6.78v6.78H55.29Zm7.92,0V15.54h1.07l4.3,6.78V15.54h1.07v8.61H68.58l-4.3-6.78v6.78H63.21Z"/><path class="cls-1" d="M70.59,19.8a4.63,4.63,0,0,1,1.06-3.23,3.8,3.8,0,0,1,5.62,0,4.65,4.65,0,0,1,1.07,3.23A4.59,4.59,0,0,1,77.27,23a3.45,3.45,0,0,1-2.81,1.19A3.51,3.51,0,0,1,71.65,23,4.48,4.48,0,0,1,70.59,19.8Zm1.06,0a3.94,3.94,0,0,0,.77,2.52,2.45,2.45,0,0,0,2,.93,2.38,2.38,0,0,0,2-.93,3.81,3.81,0,0,0,.77-2.52,3.92,3.92,0,0,0-.77-2.55,2.57,2.57,0,0,0-4,0A4.05,4.05,0,0,0,71.65,19.8Z"/><path class="cls-1" d="M78.68,15.54h1.07l2.38,6.86,2.34-6.86h1.07l-2.9,8.61H81.58Z"/><path class="cls-1" d="M85.24,24.11l2.81-8.61h1.37l2.81,8.61H91.16l-.85-2.56H87.2l-.85,2.56Zm2.26-3.54H90l-1.23-3.71L87.5,20.57Z"/><path class="cls-1" d="M92.27,16.48v-1H98.7v1H96v7.63H95V16.48Zm7.24,7.63V15.54h1.07v8.61H99.51Zm2.13-4.31a4.63,4.63,0,0,1,1.07-3.23,3.8,3.8,0,0,1,5.62,0,4.65,4.65,0,0,1,1.07,3.23,4.59,4.59,0,0,1-1.07,3.2,3.46,3.46,0,0,1-2.81,1.19A3.57,3.57,0,0,1,102.71,23,4.67,4.67,0,0,1,101.64,19.8Zm1.11,0a3.94,3.94,0,0,0,.77,2.52,2.45,2.45,0,0,0,2,.93,2.38,2.38,0,0,0,2-.93,3.87,3.87,0,0,0,.76-2.52,4,4,0,0,0-.76-2.55,2.58,2.58,0,0,0-4,0A4.05,4.05,0,0,0,102.75,19.8Zm7.71,4.31V15.54h1.07l4.3,6.78V15.54h1.07v8.61h-1.07l-4.3-6.78v6.78h-1.07Z"/><path class="cls-1" d="M34.07.59c-4.16,0-6.74,2.51-8.61,5.79C25,5.92,20.3,1.5,14.59,1.5,8.32,1.5,4.13,6.28,4.13,13.75c0,8.07,5,12.08,10.19,12.05,3.83,0,6.28-2.09,8.16-4.95.58.91,4.52,6.56,11,6.56,7.58,0,12.23-6.35,12.23-13.57C45.7,6.1,40.39.59,34.07.59ZM14.36,21.82c-3.61,0-6.59-3-6.59-8.09,0-4.83,2.7-8.26,7-8.26,4.82,0,8.4,3.43,9.1,4.16C21.33,15.39,19.57,21.82,14.36,21.82Zm18.93,1.56c-5.16,0-8.38-4.53-9.1-5.78,2.88-5.91,4.63-13,9.83-13,4.76,0,8,4.49,8,9.22S38.72,23.38,33.29,23.38Z"/></svg>