<svg xmlns="http://www.w3.org/2000/svg" width="320" height="88.4" viewBox="0 0 320 88.4"><style>.st0{fill:#fffeff}.st1{display:none}.st2{display:inline}.st3{fill:#010101}.st4{fill:#272626}</style><g id="Layer_1"><path class="st0" d="M60.5 66.8c-6.2 9.4-14.3 16.3-26.9 16.3C16.4 83.2 0 70 0 43.4 0 18.8 13.8 3 34.5 3c18.8 0 34.3 14.6 35.8 16.1C76.5 8.3 85 0 98.7 0 119.5 0 137 18.2 137 43.7c0 23.8-15.3 44.7-40.3 44.7-21.3 0-34.3-18.6-36.2-21.6zm4.5-37c-2.3-2.4-14.1-13.7-30-13.7-14.1 0-23 11.3-23 27.2C12 60.2 21.8 70 33.7 70c17.2 0 23-21.2 31.3-40.2zm1.1 26.3c2.4 4.1 13 19 30 19 17.9 0 28.8-15.4 28.8-31.4 0-15.6-10.7-30.4-26.4-30.4-17.1 0-22.9 23.3-32.4 42.8zM167.3 20.2v-2.5h16.8v2.5h-7v20.2h-2.8V20.2h-7zM184.5 40.4l7.3-22.8h3.6l7.3 22.8h-2.8l-2.2-6.8h-8.1l-2.2 6.8h-2.9zm5.9-9.4h6.5l-3.2-9.8-3.3 9.8zM204.9 40.4V17.6h2.8l11.2 17.9V17.6h2.8v22.8h-2.8l-11.2-17.9v17.9h-2.8zM225.6 40.4V17.6h7c3 0 5.5 1 7.3 3.1 1.8 2.1 2.8 4.8 2.8 8.3s-.9 6.2-2.8 8.3c-1.8 2.1-4.3 3.1-7.3 3.1h-7zm2.8-2.6h4.2c2.2 0 3.9-.8 5.3-2.4 1.3-1.6 2-3.8 2-6.5s-.7-4.8-2-6.4c-1.3-1.6-3.1-2.4-5.3-2.4h-4.2v17.7zM245.4 40.4V17.6h9.5c1.8 0 3.3.6 4.6 1.8 1.3 1.2 2 2.8 2 4.6 0 1-.2 2-.7 2.8-.5.8-1.2 1.5-2.1 1.9 1.1.5 1.9 1.2 2.5 2.1.7.9 1 2 1 3.1 0 1.8-.7 3.4-2.2 4.6-1.4 1.2-3.1 1.8-5.1 1.8h-9.5zm2.8-13h6.7c1 0 1.9-.3 2.7-1 .8-.7 1.1-1.5 1.1-2.4 0-1.1-.4-2-1.1-2.7-.7-.8-1.6-1.1-2.7-1.1h-6.7v7.2zm0 10.4h6.7c1.2 0 2.2-.3 3.1-1 .9-.7 1.4-1.7 1.4-2.8 0-1.1-.5-2.1-1.4-2.9-.9-.7-1.9-1.1-3.1-1.1h-6.7v7.8zM264.9 40.4V17.6h15.4v2.7h-12.6v7h11.2V30h-11.2v7.7h12.6v2.7h-15.4zM282.8 40.4V17.6h9.7c2.2 0 4 .6 5.3 1.8 1.3 1.2 2 2.8 2 4.8 0 1.2-.3 2.4-1 3.4s-1.6 1.7-2.7 2.2c.8.6 1.5 1.3 1.9 2.1.5.9.7 1.8.7 2.7l.1 4.4c0 .2.1.6.4 1l.1.3h-2.8l-.1-.2c-.3-.5-.5-1-.5-1.3l-.1-4.3c0-1.1-.5-2-1.4-2.7-.9-.6-1.9-1-3.2-1h-5.8v9.4h-2.6zm2.8-11.9h6.9c1.4 0 2.4-.4 3.3-1.1.8-.8 1.2-1.8 1.2-3.1 0-1.2-.4-2.2-1.2-3-.8-.8-1.9-1.1-3.3-1.1h-6.9v8.3zM301.5 29c0-3.6.9-6.4 2.6-8.6 1.7-2.1 4.1-3.2 6.9-3.2 2.1 0 4 .7 5.7 2 1.6 1.4 2.7 3.1 3 5.2l-2.8.3c-.2-1.4-.9-2.6-2.1-3.6-1.1-.9-2.4-1.4-3.8-1.4-2 0-3.7.8-4.9 2.5-1.2 1.7-1.8 3.9-1.8 6.7 0 2.7.6 5 1.8 6.6 1.2 1.6 2.8 2.5 4.9 2.5 1.9 0 3.4-.6 4.5-1.9 1.1-1.3 1.7-3 1.7-5.1H311v-2.8h9v11.6h-2l-.4-2.4c-.7 1-1.7 1.9-2.9 2.4s-2.4.8-3.7.8c-2.9 0-5.2-1.1-6.9-3.2-1.8-2.1-2.6-4.9-2.6-8.4z"/><g><path class="st0" d="M169.1 66.5V46.4h2.5v20.2h-2.5zM175.1 66.5V46.4h2.5l10.1 15.9V46.4h2.5v20.2h-2.5l-10.1-15.9v15.9h-2.5zM193.7 66.5V46.4h2.5l10.1 15.9V46.4h2.5v20.2h-2.5l-10.1-15.9v15.9h-2.5z"/></g><g><path class="st0" d="M211 56.4c0-3.2.8-5.7 2.5-7.6 1.7-1.9 3.9-2.9 6.6-2.9s4.9 1 6.6 2.9c1.7 1.9 2.5 4.5 2.5 7.6 0 3.1-.8 5.6-2.5 7.5-1.6 1.9-3.8 2.8-6.6 2.8s-4.9-.9-6.6-2.8c-1.7-1.8-2.5-4.3-2.5-7.5zm2.5 0c0 2.4.6 4.4 1.8 5.9 1.2 1.5 2.8 2.2 4.8 2.2s3.5-.7 4.7-2.2c1.2-1.5 1.8-3.4 1.8-5.9 0-2.5-.6-4.5-1.8-6-1.2-1.5-2.8-2.3-4.7-2.3-2 0-3.6.8-4.8 2.3-1.2 1.6-1.8 3.5-1.8 6z"/></g><g><path class="st0" d="M230 46.4h2.5l5.6 16.1 5.5-16.1h2.5l-6.8 20.2h-2.5L230 46.4z"/></g><g><path class="st0" d="M245.4 66.5l6.6-20.2h3.2l6.6 20.2h-2.5l-2-6H250l-2 6h-2.6zm5.3-8.3h5.8l-2.9-8.7-2.9 8.7z"/></g><g><path class="st0" d="M261.9 48.6v-2.3H277v2.3h-6.3v17.9h-2.5V48.6h-6.3zM278.9 66.5V46.4h2.5v20.2h-2.5zM283.9 56.4c0-3.2.8-5.7 2.5-7.6 1.7-1.9 3.9-2.9 6.6-2.9 2.7 0 4.9 1 6.6 2.9 1.7 1.9 2.5 4.5 2.5 7.6 0 3.1-.8 5.6-2.5 7.5-1.6 1.9-3.8 2.8-6.6 2.8-2.7 0-4.9-.9-6.6-2.8-1.6-1.8-2.5-4.3-2.5-7.5zm2.6 0c0 2.4.6 4.4 1.8 5.9 1.2 1.5 2.8 2.2 4.8 2.2s3.5-.7 4.7-2.2c1.2-1.5 1.8-3.4 1.8-5.9 0-2.5-.6-4.5-1.8-6-1.2-1.5-2.8-2.3-4.7-2.3-2 0-3.6.8-4.8 2.3-1.2 1.6-1.8 3.5-1.8 6zM304.6 66.5V46.4h2.5l10.1 15.9V46.4h2.5v20.2h-2.5l-10.1-15.9v15.9h-2.5z"/></g></g><g id="Layer_2" class="st1"><path class="st2 st3" d="M296.7 59.5c-12.8 19.4-29.6 33.7-55.7 33.7-35.4 0-69.3-27.1-69.3-82.2 0-50.8 28.4-83.4 71.2-83.4 38.9 0 70.8 30.2 74 33.3 12.8-22.5 30.4-39.6 58.8-39.6 42.8 0 79 37.6 79 90.3 0 49.2-31.5 92.3-83.3 92.3-44 .2-70.8-38.2-74.7-44.4zm9.3-76.4c-4.7-5-29.2-28.3-61.9-28.3-29.2 0-47.5 23.3-47.5 56.2 0 34.9 20.2 55.1 44.8 55.1 35.4 0 47.5-43.8 64.6-83zm2.4 54.3c5.1 8.5 26.9 39.2 61.9 39.2 37 0 59.6-31.8 59.6-64.8 0-32.2-22.2-62.8-54.5-62.8-35.5 0-47.6 48.1-67 88.4z"/><g class="st2"><path class="st4" d="M156.9 144.6v-5.3h34.7v5.3h-14.5v41.8h-5.8v-41.8h-14.4zM192.5 186.4l15.1-47h7.5l15.1 47h-5.8l-4.6-14.1H203l-4.6 14.1h-5.9zm12.1-19.4H218l-6.7-20.3-6.7 20.3zM234.6 186.4v-47h5.8l23.2 37v-37h5.8v47h-5.8l-23.2-37v37h-5.8zM277.3 186.4v-47h14.5c6.3 0 11.3 2.1 15.1 6.4 3.8 4.3 5.7 10 5.7 17.1 0 7.1-1.9 12.8-5.7 17.1-3.8 4.3-8.8 6.4-15.1 6.4h-14.5zm5.8-5.3h8.7c4.5 0 8.2-1.7 10.9-5 2.7-3.4 4.1-7.8 4.1-13.3s-1.4-9.9-4.1-13.3c-2.7-3.3-6.4-5-10.9-5h-8.7v36.6zM318.3 186.4v-47H338c3.7 0 6.9 1.3 9.6 3.8 2.7 2.6 4 5.7 4 9.4 0 2.1-.5 4-1.5 5.8-1.1 1.8-2.5 3.1-4.3 3.9 2.2 1 3.9 2.5 5.2 4.4 1.4 2 2.1 4.1 2.1 6.4 0 3.8-1.5 7-4.6 9.5-2.9 2.5-6.5 3.7-10.5 3.7l-19.7.1zm5.8-26.8H338c2.1 0 4-.7 5.5-2 1.6-1.3 2.4-3 2.4-5.1 0-2.2-.8-4-2.3-5.6-1.5-1.6-3.4-2.3-5.6-2.3h-13.9v15zm0 21.5H338c2.5 0 4.6-.7 6.5-2.2 1.9-1.5 2.8-3.5 2.8-5.8 0-2.4-.9-4.4-2.8-6-1.8-1.5-4-2.3-6.5-2.3h-13.9v16.3zM358.6 186.4v-47h31.8v5.6h-26.1v14.4h23.2v5.6h-23.2v15.9h26.1v5.6l-31.8-.1zM395.5 186.4v-47h20c4.6 0 8.2 1.3 11 3.8 2.7 2.5 4.1 5.8 4.1 10 0 2.6-.7 4.9-2 7-1.4 2.1-3.3 3.6-5.6 4.5 1.7 1.2 3 2.6 4 4.3 1 1.8 1.5 3.7 1.5 5.6l.3 9.1c0 .5.3 1.2.8 2.1l.3.5h-5.8l-.2-.3c-.7-1.1-1-2-1-2.6l-.3-8.8c0-2.3-1-4.1-3-5.6-1.8-1.3-4-2-6.5-2h-11.9v19.3h-5.7zm5.7-24.6h14.2c2.8 0 5.1-.8 6.8-2.3 1.7-1.6 2.5-3.7 2.5-6.3 0-2.5-.8-4.6-2.5-6.2-1.7-1.6-4-2.3-6.8-2.3h-14.2v17.1zM434.1 162.9c0-7.4 1.8-13.3 5.3-17.8 3.6-4.4 8.4-6.7 14.3-6.7 4.4 0 8.3 1.4 11.7 4.2 3.4 2.8 5.5 6.4 6.2 10.8l-5.8.6c-.5-3-1.9-5.5-4.3-7.4-2.3-2-4.9-2.9-7.9-2.9-4.2 0-7.6 1.8-10.1 5.3s-3.8 8.1-3.8 13.9c0 5.7 1.3 10.2 3.8 13.7 2.5 3.4 5.8 5.1 10.1 5.1 3.9 0 7-1.3 9.3-4 2.3-2.6 3.5-6.2 3.5-10.6h-12.8v-5.8h18.6v24h-4.1l-.8-5c-1.5 2.2-3.5 3.8-5.9 5-2.4 1.1-5 1.7-7.7 1.7-5.9 0-10.7-2.2-14.3-6.6-3.5-4.4-5.3-10.3-5.3-17.5z"/></g><g class="st2"><path class="st4" d="M160.7 239.6V198h5.2v41.6h-5.2zM173.1 239.6V198h5.2l20.8 32.8V198h5.2v41.6h-5.2l-20.8-32.7v32.7h-5.2zM211.4 239.6V198h5.2l20.8 32.8V198h5.2v41.6h-5.2l-20.8-32.7v32.7h-5.2z"/></g><path class="st2 st4" d="M247.2 218.7c0-6.5 1.7-11.8 5.1-15.8 3.4-3.9 8-5.9 13.6-5.9 5.7 0 10.2 2 13.6 5.9 3.4 4 5.1 9.2 5.1 15.8 0 6.4-1.7 11.6-5.1 15.5-3.4 3.9-7.9 5.8-13.6 5.8-5.7 0-10.2-1.9-13.6-5.8-3.4-3.9-5.1-9-5.1-15.5zm5.2 0c0 5 1.2 9.1 3.7 12.1s5.8 4.5 9.9 4.5c4.1 0 7.3-1.5 9.8-4.5 2.5-3.1 3.7-7.1 3.7-12.1 0-5.2-1.2-9.3-3.7-12.3-2.5-3.1-5.7-4.7-9.8-4.7-4.1 0-7.4 1.6-9.9 4.7s-3.7 7.2-3.7 12.3zM286.4 197.9h5.2l11.5 33.3 11.4-33.3h5.2l-14.1 41.6h-5.2l-14-41.6zM318.4 239.6L332 198h6.7l13.6 41.6H347l-4.2-12.5h-15.1l-4.2 12.5h-5.1zm10.9-17.2h12.1l-6-18-6.1 18z"/><g class="st2"><path class="st4" d="M352.4 202.6v-4.7h31.2v4.7h-13.1v37h-5.2v-37h-12.9zM387.6 239.6V198h5.2v41.6h-5.2zM397.9 218.7c0-6.5 1.7-11.8 5.1-15.8 3.4-3.9 8-5.9 13.6-5.9 5.7 0 10.2 2 13.6 5.9 3.4 4 5.1 9.2 5.1 15.8 0 6.4-1.7 11.6-5.1 15.5-3.4 3.9-7.9 5.8-13.6 5.8-5.7 0-10.2-1.9-13.6-5.8-3.4-3.9-5.1-9-5.1-15.5zm5.2 0c0 5 1.2 9.1 3.7 12.1s5.8 4.5 9.9 4.5c4.1 0 7.3-1.5 9.8-4.5 2.5-3.1 3.7-7.1 3.7-12.1 0-5.2-1.2-9.3-3.7-12.3-2.5-3.1-5.7-4.7-9.8-4.7-4.1 0-7.4 1.6-9.9 4.7-2.4 3.1-3.7 7.2-3.7 12.3zM440.6 239.6V198h5.2l20.8 32.8V198h5.2v41.6h-5.2l-20.8-32.7v32.7h-5.2z"/></g></g></svg>